<svg xmlns="http://www.w3.org/2000/svg" xmlns:xlink="http://www.w3.org/1999/xlink" version="1.1" x="0px" y="0px" viewBox="0 0 570 712.5" style="enable-background:new 0 0 570 570;" xml:space="preserve"><g><path d="M538.458252,227.6206818l-25.0112915-0.3242645c-1.4608765-0.0153503-2.587677,1.1509552-2.6005249,2.5325623   l-0.1223755,9.3958893c-1.8051147,0.4705658-3.93573,1.5452728-5.2830811,2.285965   c-0.5591736-0.1839294-47.3862-12.6650238-61.8585205-19.779541   c-11.2785645-5.5374908-37.3512268-24.6811676-48.0360718-32.6488647   c-4.1276245-3.0697021-9.0064087-4.9528198-14.1170349-5.4627686l-29.7295532-2.9039459   c0.1377869-0.9429169,0.6062012-4.112915,1.0688171-6.782486c5.6366882,1.1902008,9.8177795-2.2372742,12.131134-9.9436646   v-0.0009003c2.0536499-6.8617096,3.5085449-14.781311,2.0934753-21.7824554   c0.5489197-0.1836395,0.9526672-0.3919678,1.191803-0.6311035c3.523468-3.5053711,2.1149902-10.5849457-1.4981689-14.5749207   c-8.8008118-9.6927643-18.1335144-9.7695236-23.2265015-8.8125687c-0.3401184-0.5794754-0.8104248-1.0649719-1.3665771-1.4213943   c-0.8158875-1.8937607-1.9499207-3.718689-3.0631409-4.9115982c-2.5062866-2.6756821-5.626709-4.56604-8.8712158-6.4256134   c-6.8114624-3.9075394-14.1211243-7.2960663-21.4307861-5.6783371   c-11.2740173,2.4894485-13.7133789,11.7126617-19.2668762,19.6101532   c-5.9020691,8.4056549-15.5957336,13.8720398-25.2993469,14.2660522   c-8.2411194,0.3386383-16.4868469-2.4934235-24.5738525-4.095932   c-12.9626312-2.5724258-30.8518066,1.3758698-39.9576263,13.8973999c-6.4455414,8.836792-6.9382782,21.5159149-1.2001648,30.835495   c11.7853546,19.1219482,40.0558167,28.627182,58.6194305,14.6410522   c5.2544556-3.9569397,9.1908569-9.2460022,14.0061035-13.5803833c6.275238-5.6557007,14.04776-9.5922241,22.4769592-11.3838501   c3.7471619-0.7919617,8.5046082-0.1381226,11.9717102-1.9166412c3.7372437-1.9211578,6.8640137-7.0958862,8.4056396-10.9418335   c1.8221741-4.5146027,2.3648987-9.4253082,4.1113281-13.8421478c1.5670166-3.9546356,4.897583-8.3531036,9.5415039-8.8395081   c0.4234619-0.0416718,0.8657227-0.0466461,1.3235779-0.0328369c0.0203857,0.0579681,0.0546875,0.1084595,0.0790405,0.1643982   c-0.3743286,0.6003113-0.7225952,1.1951752-1.0231018,1.7696686c-7.7651367,15.0040436,3.5172729,25.3761292,6.4034424,27.6947021   c-0.8541565,4.5467987-2.4226379,11.6750793-4.5414734,20.5834351l-22.6140747-2.2137299   c-4.2202759-0.4171143-8.4126587,0.4451904-12.1227417,2.4673462   c-0.6061707,0.4040985-39.3638763,30.0729675-54.2135468,37.3602905   c-14.3672791,7.0587616-61.3276062,19.6264648-61.8006592,19.7564545c-0.3243866,0.0830994-0.523819,0.3840485-0.5040588,0.7058258   c-2.6988831,1.0678864-5.1160431-0.7921906-8.3900909-0.7345886c-4.8140564-3.0298462-11.9024048-5.9616241-16.9840088-7.9534454   c-0.2936707-4.9090271-0.1110687-4.9181519-0.4198914-5.2467346c-6.4089203-6.8264923-6.4720764-6.9309235-6.6247711-7.0363312   c-0.1694946-0.118042-0.3152466-0.1461792-0.5029297-0.1161652c-0.3573761,0.0577545,7.7674713-1.6274109-112.2633057,23.5127258   c-0.3097763,0.0652161-0.5362206,0.3296967-0.5525284,0.6449127c-4.142643,79.8703766-4.0183563,75.0383148-3.6373882,75.3917694   c23.8548145,19.7131348,20.4905682,16.9329834,20.8354549,17.2179871c0.1867294,0.1547241,0.4446678,0.203949,0.6838646,0.1159668   l42.7325439-15.7719116c9.0126953,26.2471313,8.7513885,25.8486023,9.1261368,26.043457   c19.5419846,10.0941162,18.384285,9.60672,18.7070999,9.60672c0.5897675,0-2.7871323,3.2830505,52.5941772-57.7662048   c0.002655-0.0029297,0.0028381-0.0072327,0.0054321-0.0101929c0.0036316-0.0040588,0.0091705-0.0056458,0.0126801-0.0097351   c0.1072235-0.1287231,0.1913605-0.3623657,0.1397247-0.5960083c-0.0020447-0.0092773,0.0021973-0.0187683-0.0002289-0.0280762   c-0.002655-0.0099487-0.0113831-0.0162964-0.0144348-0.0260315c-0.1876373-0.6087036,1.0713348,2.5053101-10.6720276-25.0274048   c5.237854-5.2879639,8.521759-10.0048218,9.803772-14.1014252c1.4703217-0.8453217,2.6050873-1.8840332,3.3755188-3.0966492   c1.4650726-0.9270782,1.1946716-0.8343658,4.6261597-2.8912506l0.0100098,0.0466461   c0.0649414,0.333786,0.3710327,0.5842285,0.7142181,0.5471039c2.0962067-0.1109619,51.6350098-2.7082977,67.1987-7.6149139   c11.1952209-3.5243835,39.428894-20.1735535,44.3819275-23.1137085   c11.9334412,30.4279022,0.2728577,46.1622162-0.1915894,46.7740631c-0.0002136,0-0.0004578,0.0002441-0.0006714,0.0004578   c-0.9537964,1.0724487-23.3139038,26.5140381-18.9824524,49.1313782c0.5223999,2.7288818,1.4309082,5.2929382,2.6947021,7.6991577   l-38.6623688,38.1886292c-21.8021393,2.4827271-67.04953,28.4976807-68.9716034,29.6081543   c-0.2844086,0.1639709-0.4148407,0.5054321-0.3134003,0.8170166l0.5868378,1.8056946l-3.66745,1.0971069   c-0.4863434-1.0447998-2.0397034-3.8502502-5.0197906-4.6609192c-2.4809265-0.6757202-5.2607727,0.210144-8.2688751,2.6276855   c-0.1421967,0.1150208-0.2345886,0.2807922-0.2554169,0.4619446c-4.6573486,41.0169373-4.8445587,39.1665039-4.4274597,40.8914795   c0.9460449,3.8942261,3.1496429,9.2887878,7.1375427,9.2887878c1.9963531,0,4.1511993-1.3740845,6.419281-4.0995789   c0.0461884-0.0552368,0.0833282-0.1168213,0.1105042-0.1838684c12.2508087-30.3088074,11.5711823-28.498291,11.5838013-28.7227783   l1.4432526-1.1430664l0.7589264,2.3355408c0.1438446,0.4460754,0.7381592,0.6416626,1.1340485,0.2952881   c0.2572327-0.2237244,7.0768585-5.646637,73.5303955-19.0331726c16.2271729-3.2687378,31.164978-10.9663086,44.2219238-20.2779541   c-14.3808289,31.9376526-14.320282,30.8510742-14.447998,32.6264648   c-0.3733826,5.1304321,0.5076904,11.7108459,5.648468,11.7108459c1.7137146,0,3.7635193-0.7527161,6.1257935-2.2536011   c0.1726379-0.1082153-1.0671692,1.3132935,20.7224426-24.7939453c0.1200256-0.1440125,0.1651001-0.3242493,0.1504822-0.5013428   l4.4545288-2.9677734l1.2735291,3.5479431c0.1345215,0.3755798,0.5614929,0.5655212,0.9338379,0.4021606l84.1443481-36.908783   c0.3188477-0.1041565,7.835907-2.6303711,10.1311646-9.3268127c1.5398254-4.4908752,0.3315125-9.711792-3.5923157-15.5187683   c-4.4537354-6.5922546-11.2479858-11.7026672-19.1319275-14.3901367l-34.3291016-11.7026978   c4.0044556-6.7435303,6.9147339-12.3783875,6.9446411-12.4363708c0.0063171-0.012207,0.0047607-0.0264893,0.0104065-0.0389404   c0.0022583-0.0056458,0.0065613-0.0095215,0.008606-0.0154114l26.5550232-64.4902344   c6.7802124,3.9510193,34.8191223,19.4498291,45.4855957,22.8075562   c14.9841003,4.7236481,59.7584534,8.0800323,64.8779297,8.4561462c0.5666809,0.5093384,7.0041809,1.0735168,10.228302,1.0260315   l-0.1530762,11.838562c-0.0262756,1.4308167,1.114563,2.5964355,2.5316772,2.6095581   c0.0957031,0.0012512,25.1481323,0.333313,25.0430298,0.333313c1.3984985,0,2.5524902-1.1331177,2.5787354-2.541626   c0.0015259-0.1146851,0.5108032-38.8854675,0.5099487-38.7909698   C541.0125732,228.8145142,539.8740234,227.6469574,538.458252,227.6206818z M340.9085388,122.9957275   c-0.4673767,0.4148636-5.6309814,4.6055145-6.1260071,5.0071564c-1.4152222,1.141922-4.4606628,1.3570557-4.6493835-0.3922043   c-0.0371399-0.3188324,0.0081482-0.6929169,0.1313477-1.1068649c0.6730042-2.18927,3.106842-4.9192963,6.8504333-7.6846466   c1.2556458-0.9163284,2.733551-1.7504196,4.0850525-0.9827728c0.5434875,0.3016281,0.9972839,0.8124924,1.2418213,1.3976212   C343.0440674,120.7122574,342.1027222,121.9336624,340.9085388,122.9957275z M257.5221252,173.8526154   c0.3152161-0.2409363,0.7513428-0.176178,0.9832153,0.1299744c0.2318726,0.3061676,0.1669006,0.7418365-0.1392517,0.9737244   c-14.57901,11.053299-35.3849182,8.7856598-47.2199554-5.2680206c-0.2504578-0.2971039-0.2133636-0.7327881,0.0834351-0.9832306   c0.296814-0.241394,0.7327271-0.2042542,0.9831696,0.0833282   C223.5937805,182.3170929,243.6085968,184.408844,257.5221252,173.8526154z M335.6595459,158.5462799   c0.0181274-0.0077057,0.038269-0.0047607,0.0559387-0.0140381c0.2291565-0.1222839,0.3704529-0.3623199,0.3677368-0.6222839   c-0.0404968-3.2250977,0.3750305-2.9718018,0.3894958-4.9392242c0.0099487-1.2608337-0.1693726-2.1113739-0.6621399-3.1358032   c-0.8553772-1.7741089-1.666626-3.5496826-1.1122742-5.3567963c0.2722473-0.8872986,0.7365417-1.7092133,1.669342-1.7092133   c2.0126343,0,5.2644043,3.489975,6.1176453,5.6466522c0.1268005,0.3215485,0.4664917,0.4936523,0.8061523,0.4220886   c0.3360291-0.0797119,0.563385-0.3931122,0.5335083-0.7364044c-0.2666626-2.8790741-0.493866-3.3821106,1.7934265-3.9102478   c2.0174866-0.4729767,14.9405823-0.6000519,20.0202637-1.634491c1.3555298,6.7153625-0.1053772,14.4634705-2.0722046,21.0326996   c-2.1883545,7.2924347-5.9473572,10.2588654-11.1691895,8.8232117c-3.4152527-1.3639679-7.0319824-4.3823242-9.2280884-8.3105469   c-0.1865845-0.3342285-0.6105042-0.4546967-0.9465332-0.2671967c-0.335144,0.1874847-0.4547119,0.6113892-0.2672119,0.9465332   c3.140686,5.618103,7.8750916,8.0476379,9.4729919,8.7398834c-0.4973755,2.8502655-1.0114136,6.3506622-1.1244202,7.1257782   l-7.0315552,10.5206451l-12.1691895-12.0305786C332.2488403,174.3254395,334.4636841,164.8412323,335.6595459,158.5462799z    M168.0765228,236.2930908c-2.6613617,0.9059296-4.0975647,3.2771759-5.0165558,5.8855438   c-0.2528534-0.0104523-0.3523254-0.0237885-0.6068115-0.0237885c-2.1837311,0-5.2050781,0.8383026-8.4913635,2.0663147   l-0.7123413-14.729126C157.759964,231.2709808,163.6386566,233.7261047,168.0765228,236.2930908z M164.3199615,251.3820496   c0.448822,0.1770782,1.1908264,0.3863068,2.0488892,0.6007538c-0.7665558,1.042572-1.4515076,2.6002502-0.8631592,3.7524261   c-2.2171783,0.328125-4.7585754,0.4682922-7.6034088,0.4266052l-3.7927856-8.8856964l-0.0769348-1.5910034   c2.2580109-0.8638306,6.1564484-2.223938,8.5768433-2.135376   C161.2605286,248.0279388,161.789505,250.3920288,164.3199615,251.3820496z M166.8742676,255.2008209   c-0.0815125-0.0090637-0.125-0.0262756-0.1630402-0.1394958c-0.1534729-0.4510803,0.1316833-1.5894165,1.1603088-2.7232361   c1.3218689,0.2989197,2.6809998,0.5774384,3.5968475,0.7595062   C167.9076538,255.1713715,167.025589,255.2316132,166.8742676,255.2008209z M81.8368225,278.5708618l60.2458191-45.4982758   l5.4408569,13.8534698c-7.7903748,3.5678406-13.0131531,6.6171112-14.1622162,7.0030365   c-0.3061676,0.0344238-0.5643158,0.2708282-0.6114044,0.5905762c-0.059906,0.4057312,0.2443085,0.800705,0.7155609,0.800705   c0.7422028,0,6.8495178-3.5552063,14.5694275-7.0922546l9.4957123,24.178009   c-2.7788849,2.4660034-6.0637512,5.1529846-9.9485474,8.0750427c-0.3070526,0.230957-0.3686523,0.6675415-0.1376648,0.9746094   c0.2316437,0.3068237,0.6667175,0.368042,0.9746094,0.1376953c3.5978851-2.7064819,6.8172455-5.3074341,9.6566467-7.7996826   l7.3556824,18.7290649l-62.2140274,48.4332275L81.8368225,278.5708618z M34.1737175,240.3333282l110.8747406-23.2292175   l0.1340485,15.9272614c-2.714325-1.8458252-2.3103485-1.6221771-2.6012878-1.7404633   c-0.1108093-0.0114288-0.1709595-0.0392303-0.3411407,0.0002289c-0.099472,0.022644-0.196106,0.0590973-0.2793274,0.1256714   c-0.004303,0.0034027-0.0065613,0.0083923-0.0107422,0.0117798l-61.3541107,46.3352356   c-0.2400284,0.1811523-0.3360443,0.4963684-0.2391205,0.7807922l7.6781311,22.4140015   c-13.5418854,2.993866-45.0020103,9.9491577-57.671814,12.7502136L34.1737175,240.3333282z M162.7286224,267.4687195   l-4.2304993-9.9110718c0.1052856,0.0004578,0.2147217,0.0036316,0.3192291,0.0036316   c5.2228394,0,9.4067535-0.6473999,12.5214539-1.9232025C170.1566467,258.4992065,167.6756592,262.3908997,162.7286224,267.4687195z    M174.208374,251.4988861c-0.4513092,0.2987671-0.9910736,0.4329681-1.4501495,0.4329681   c-0.6666565-0.1277161-6.3803253-1.2336731-7.9292145-1.8441772c-1.2626495-0.4945526-2.4555664-1.4809418-0.6231689-6.9708862   c1.0775146-3.2325592,2.7001038-5.8123932,6.129425-5.8123932c2.8882141,0,5.6989136,1.9796295,8.8699646,0.6034698   c3.1297455,12.3802795,2.050293,8.1103058,2.2838135,9.0340424   C177.9702911,249.0270844,174.1154633,251.5591125,174.208374,251.4988861z M293.3613892,218.5592499   c-0.3452148,0.2388-0.7515869,0.1177979-0.9275208-0.1390381c-0.0185547-0.0095062-0.0278625-0.0280762-0.0371399-0.0371399   c-0.2235413-0.3160553-0.1295471-0.7512207,0.1763916-0.9646454l12.3544006-8.5705109   c0.3154602-0.2133026,0.7513428-0.1390381,0.973938,0.176178c0.2133179,0.3156738,0.1392822,0.7513428-0.1761475,0.9741669   C305.6302795,210.0640564,293.2675476,218.6242065,293.3613892,218.5592499z M174.2500458,407.3575439   c-2.2022552,1.4976196-5.0882568,3.8883972-7.4319305,3.0968628c-1.2979889-0.4411011-2.2200775-1.8668213-2.7399902-4.2381592   c-1.8296814-8.3549194,1.7427216-11.2180786,1.7889099-11.253418c0.0964203-0.0726929,0.1615753-0.1702881,0.2084503-0.275116   l3.8062592-1.1383362C175.8680878,412.472168,173.8033905,405.9456482,174.2500458,407.3575439z M249.7985229,390.457489   c-56.4772644,11.3775024-70.1971283,17.0920715-73.3428955,18.822113l-5.9500885-18.3094482   c5.0669403-2.8858337,47.9457092-27.0194397,68.1781464-29.1770325c0.1567078-0.0172119,0.3034363-0.0860291,0.4157562-0.1974487   l38.5597687-38.0874023c3.258667,5.4892578,8.5157166,10.0835876,15.7427063,13.7101135   c5.0769043,2.5488586,10.8612366,3.895752,16.7261658,3.895752h15.6268616   c-6.4825439,7.2258911-14.3231201,15.0760498-23.2747192,22.4090271c-1.43927,0.0375977-3.0386658,0.382019-4.802124,1.0579529   c-0.1702881,0.0652161-0.3088684,0.1956482-0.3840332,0.3614197l-1.8344421,4.0388794   C282.0823669,378.830658,266.6338196,387.0662231,249.7985229,390.457489z M311.5401917,370.2950134l-1.3534546,0.4282227   c-0.4565735-3.3547058-2.2989197-6.2889709-5.7299805-7.0241089c8.9416504-7.4398499,16.7449341-15.3543396,23.1648865-22.5849915   h14.6897278c-5.3658447,3.1720581-18.9516602,12.1592102-30.8825989,27.9388428   C311.0976257,369.4924011,311.4530945,369.9315796,311.5401917,370.2950134z M305.7703552,387.7147827   c-1.1593933-0.8595886-1.6249695-2.5805664-1.3831177-5.1149597c0.9125061-9.5789795,5.3668213-10.6246643,7.4667969-11.4305115   l4.7725525,13.2957458C315.5822144,384.9810486,309.6558228,390.5928955,305.7703552,387.7147827z M312.2512207,287.893158   l42.8434448,14.6057434c0.0154114,0.0063171,0.0307922,0.0108643,0.0471191,0.0162964l35.1171265,11.9717102   c7.5986023,2.5905151,14.1437683,7.5098267,18.4290161,13.8521118c3.6629639,5.4210815,4.8178406,10.2262573,3.4320068,14.2796326   c-2.06427,6.0388489-9.1800842,8.440979-9.3141479,8.4889832l-83.5247803,36.6333923l-6.5144043-18.1491089   c14.9309082-19.6038208,32.3463745-28.4632874,32.5220947-28.5511475c0.6539917-0.3290405,0.4178162-1.3179016-0.311615-1.3179016   h-34.848999c-5.649353,0-11.2171936-1.2961731-16.1020813-3.7472229   c-10.4563293-5.2480774-16.6464539-12.5441589-18.3982239-21.6853027   c-3.9394531-20.5569153,15.6778259-44.4566345,18.356781-47.602417l67.7227783,22.4314575   c-0.9247131,1.7549438-3.4556885,6.4842529-6.6742554,11.8885803l-42.3325806-14.4317932   c-0.3641357-0.1231995-0.7590637,0.0697327-0.8831482,0.4338684   C311.6932678,287.3741455,311.8880005,287.7690735,312.2512207,287.893158z M501.612915,254.6881409   c5.5749207-16.0923004,3.6324768-10.485321,4.0566406-11.7097015c4.0032959-2.2640686,5.9772644-2.552475,5.8844299-2.5164948   c0.0938721,0,1.0487366-0.2425842,1.4491272,0.0452881c0.4528809,0.3342285,0.5063477,0.6494446,0.5072021,0.8577728   c0.0036621,1.050705-1.5062866,2.5724182-2.4591675,3.2852783c-0.2314758,0.1732178-0.3267517,0.4654846-0.2372131,0.7597198   c0.0372314,0.12323,0.2306213,0.5992126,0.2990417,0.9678192c0.278595,1.3867493-0.4244995,2.187912-1.8108826,2.5214691   c-0.3740845,0.0896759-0.6041565,0.4655762-0.5144958,0.8387604c0.0886536,0.3670502,0.4559021,0.6038208,0.8387451,0.5144806   c0.3516846-0.0846863,0.6619263-0.2004089,0.9517517-0.3308411l-0.0706482,5.4682007   C506.8431091,255.4499054,503.1636047,254.934967,501.612915,254.6881409z M511.7277832,268.636261   c0.0423584-3.2740479,0.156189-12.0707397,0.2563171-19.8067169c0.7027283-0.9680786,0.6962585-2.2689056,0.3197327-3.3993835   c2.1937866-1.8495026,3.7397461-4.4104004,1.520813-6.0451813c-0.355896-0.2595367-0.973999-0.4523773-1.7055664-0.4039917   l0.1186523-9.1366119c0.0057983-0.6693726,0.5737915-1.1751556,1.1875-1.1566772l16.4567871,0.2133179l-0.5410156,41.1509857   l-16.4574585-0.2192078C512.2476807,269.827301,511.714447,269.3080139,511.7277832,268.636261z M539.0986328,268.9940491   c-0.0117188,0.6521606-0.5470581,1.1476135-1.1965332,1.1720886l-2.5601807-0.0342102l0.5410156-41.1530151l2.5535889,0.0330505   c0.6630249,0.0117798,1.1775513,0.5389404,1.1721191,1.2001648L539.0986328,268.9940491z"/><path d="M522.7085571,235.9910126c0.0009155-0.0009003,0.0009155-0.0018158,0.0018311-0.0027161   c0.6511841-1.5430908-0.0733643-3.3234863-1.6141357-3.9627991c-2.5235596-1.0640106-5.0551147,1.500351-3.9133911,4.0302734   c-1.1762695,2.4264526,1.2940063,5.1318817,3.8762817,4.0800934c1.5391235-0.6298218,2.3306274-2.4031677,1.5925903-4.0413666   C522.6691284,236.0584869,522.6925049,236.0290527,522.7085571,235.9910126z M521.4196167,237.9692383   c0,0.0009003-0.0009155,0.0027161-0.0018311,0.0036163c-0.1657104,0.3985443-0.480957,0.7092285-0.8858032,0.8749847   c-1.3499146,0.5514069-2.6865234-0.8152161-2.12677-2.1430664c0.5114136-1.1811829,2.1525269-1.3678436,2.8863525-0.2531738   C521.5814209,236.9072113,521.6300049,237.4737701,521.4196167,237.9692383z"/><path d="M520.6461182,257.2714233c-0.0009155,0-0.0027466,0-0.0036621,0   c-0.3849487,0.0018311-0.6938477,0.3152161-0.6920166,0.6992798l0.0498047,8.7552795   c0.0018311,0.3831482,0.3134155,0.6920166,0.6956787,0.6920166c0.0009155,0,0.0026855,0,0.0036011,0   c0.3849487-0.0018311,0.6938477-0.3152161,0.6920166-0.6992798l-0.0498047-8.7552795   C521.3399048,257.5802917,521.0283203,257.2714233,520.6461182,257.2714233z"/><path d="M516.7820435,257.3764954c-0.0009155,0-0.0027466,0-0.0036621,0   c-0.3849487,0.0018311-0.6937866,0.3152161-0.6920166,0.6992798l0.0498657,8.7552795   c0.00177,0.3831482,0.3133545,0.6920166,0.6956177,0.6920166c0.0009155,0,0.0026855,0,0.0036011,0   c0.3849487-0.0018311,0.6938477-0.3152161,0.6920166-0.6992798l-0.0498047-8.7552795   C517.4758301,257.6853638,517.1642456,257.3764954,516.7820435,257.3764954z"/><path d="M159.2765808,152.526001c16.2073975-12.4137421,19.2757568-35.5791626,6.8540497-51.7853165   c-12.4095306-16.2024612-35.5765076-19.2703629-51.7844162-6.844986   c-16.2123489,12.4099121-19.2774963,35.5774765-6.8540497,51.7853165   C119.9295425,161.9173889,143.1054077,164.9185028,159.2765808,152.526001z M115.192215,95.0007553   c15.5574799-11.9242554,37.86586-9.0401764,49.8333588,6.5859299c11.9499207,15.5903549,9.0066223,37.8865204-6.5950012,49.834259   c-15.5860596,11.9470825-37.8830872,9.0176849-49.8333511-6.5859222   C96.6436844,129.240509,99.5851364,106.9464951,115.192215,95.0007553z"/><path d="M488.2426758,307.0948181l-31.0338745,2.1774902c-1.7454834,0.123291-2.6332703,2.1604309-1.5353088,3.522583   l17.0794067,21.1807861c0.9450989,1.1730652,2.7731628,1.0467834,3.5470581-0.2481689l13.9544678-23.3591919   C491.1503601,308.8711548,489.9926453,306.9688721,488.2426758,307.0948181z"/><path d="M234.5678253,483.7375183c2.5570068,0,5.1348724-0.8088379,7.3168945-2.4809265   c5.2752686-4.0424805,6.2788696-11.6220703,2.2381897-16.8964233c-4.0415955-5.273468-11.6220856-6.2779846-16.8973541-2.2354736   c-2.5561066,1.9573975-4.1964874,4.793396-4.6194763,7.9844666c-0.4221039,3.1919556,0.4239044,6.3567505,2.3812866,8.9119568   C227.3578033,482.1134644,230.9428864,483.7375183,234.5678253,483.7375183z"/></g><text x="0" y="585" fill="#000000" font-size="5px" font-weight="bold" font-family="'Helvetica Neue', Helvetica, Arial-Unicode, Arial, Sans-serif">Created by Vectors Market</text><text x="0" y="590" fill="#000000" font-size="5px" font-weight="bold" font-family="'Helvetica Neue', Helvetica, Arial-Unicode, Arial, Sans-serif">from the Noun Project</text></svg>